<?xml version="1.0" encoding="UTF-8"?>
<svg width="16px" height="16px" viewBox="0 0 16 16" version="1.1" xmlns="http://www.w3.org/2000/svg" xmlns:xlink="http://www.w3.org/1999/xlink">
    <!-- Generator: Sketch 62 (91390) - https://sketch.com -->
    <title>Path</title>
    <desc>Created with Sketch.</desc>
    <g id="current" stroke="none" stroke-width="1" fill="none" fill-rule="evenodd">
        <g id="Artboard-Copy" transform="translate(-327.000000, -223.000000)" fill="#9AE0D3">
            <g id="Word" transform="translate(16.000000, 207.000000)">
                <g id="Delete-button" transform="translate(295.000000, 0.000000)">
                    <g id="X">
                        <path d="M17.5473951,16.2600471 L23.9990012,22.7124974 L30.4367401,16.2759119 C30.7922314,15.9204206 31.3685968,15.9204206 31.7240881,16.2759119 C32.0795794,16.6314032 32.0795794,17.2077686 31.7240881,17.5632599 L25.2865038,24 L31.7399529,30.4526049 C32.0866824,30.7993343 32.0866824,31.3614939 31.7399529,31.7082233 L31.7082233,31.7399529 C31.3614939,32.0866824 30.7993343,32.0866824 30.4526049,31.7399529 L24,25.2865038 L17.5632599,31.7240881 C17.2077686,32.0795794 16.6314032,32.0795794 16.2759119,31.7240881 C15.9204206,31.3685968 15.9204206,30.7922314 16.2759119,30.4367401 L22.7124974,23.9990012 L16.2600471,17.5473951 C15.9133176,17.2006657 15.9133176,16.6385061 16.2600471,16.2917767 L16.2917767,16.2600471 C16.6385061,15.9133176 17.2006657,15.9133176 17.5473951,16.2600471 Z" id="Path"></path>
                    </g>
                </g>
            </g>
        </g>
    </g>
</svg>