<?xml version="1.0" encoding="UTF-8"?>
<svg width="100%" height="100%" viewBox="0 0 375 150" version="1.1" xmlns="http://www.w3.org/2000/svg" xmlns:xlink="http://www.w3.org/1999/xlink">
    <!-- Generator: Sketch 62 (91390) - https://sketch.com -->
    <title>Path + Path Copy + Path Copy 2 + Path Copy 5 + Path Copy 4 + Path Copy 3 Mask</title>
    <desc>Created with Sketch.</desc>
    <defs>
        <rect id="path-1" x="0" y="0" width="100%" height="100%"></rect>
    </defs>
    <g id="current" stroke="none" stroke-width="1" fill="none" fill-rule="evenodd">
        <g id="Artboard-Copy">
            <g id="Path-+-Path-Copy-+-Path-Copy-2-+-Path-Copy-5-+-Path-Copy-4-+-Path-Copy-3-Mask" transform="translate(187.500000, 75.000000) scale(-1, -1) translate(-187.500000, -75.000000) ">
                <mask id="mask-2" fill="white">
                    <use xlink:href="#path-1"></use>
                </mask>
                <use id="Mask" fill="#FFFFFF" xlink:href="#path-1"></use>
                <path d="M0,125 C33.3333333,108.333333 61,103.666667 83,111 C116,122 140,131 168,118 C196,105 199,46 238,65 C264,77.6666667 309.666667,73.6666667 375,53" id="Path" stroke-opacity="1.24" stroke="#000000" mask="url(#mask-2)"></path>
                <path d="M0,122 C33.3333333,105.333333 61,100.666667 83,108 C116,119 140,128 168,115 C196,102 199,43 238,62 C264,74.6666667 309.666667,70.6666667 375,50" id="Path-Copy" stroke-opacity="0.24" stroke="#000000" mask="url(#mask-2)"></path>
                <path d="M0,119 C33.3333333,102.333333 61,97.6666667 83,105 C116,116 140,125 168,112 C196,99 199,40 238,59 C264,71.6666667 309.666667,67.6666667 375,47" id="Path-Copy-2" stroke-opacity="0.24" stroke="#000000" mask="url(#mask-2)"></path>
                <path d="M0,116 C33.3333333,99.3333333 61,94.6666667 83,102 C116,113 140,122 168,109 C196,96 199,37 238,56 C264,68.6666667 309.666667,64.6666667 375,44" id="Path-Copy-5" stroke-opacity="0.24" stroke="#000000" mask="url(#mask-2)"></path>
                <path d="M0,113 C33.3333333,96.3333333 61,91.6666667 83,99 C116,110 140,119 168,106 C196,93 199,34 238,53 C264,65.6666667 309.666667,61.6666667 375,41" id="Path-Copy-4" stroke-opacity="0.24" stroke="#000000" mask="url(#mask-2)"></path>
                <path d="M0,110 C33.3333333,93.3333333 61,88.6666667 83,96 C116,107 140,116 168,103 C196,90 199,31 238,50 C264,62.6666667 309.666667,58.6666667 375,38" id="Path-Copy-3" stroke-opacity="0.24" stroke="#000000" mask="url(#mask-2)"></path>
                <path d="M0,107 C33.3333333,90.3333333 61,85.6666667 83,93 C116,104 140,113 168,100 C196,87 199,28 238,47 C264,59.6666667 309.666667,55.6666667 375,35" id="Path-Copy-11" stroke-opacity="0.24" stroke="#000000" mask="url(#mask-2)"></path>
                <path d="M0,104 C33.3333333,87.3333333 61,82.6666667 83,90 C116,101 140,110 168,97 C196,84 199,25 238,44 C264,56.6666667 309.666667,52.6666667 375,32" id="Path-Copy-10" stroke-opacity="0.24" stroke="#000000" mask="url(#mask-2)"></path>
                <path d="M0,101 C33.3333333,84.3333333 61,79.6666667 83,87 C116,98 140,107 168,94 C196,81 199,22 238,41 C264,53.6666667 309.666667,49.6666667 375,29" id="Path-Copy-9" stroke-opacity="0.24" stroke="#000000" mask="url(#mask-2)"></path>
                <path d="M0,98 C33.3333333,81.3333333 61,76.6666667 83,84 C116,95 140,104 168,91 C196,78 199,19 238,38 C264,50.6666667 309.666667,46.6666667 375,26" id="Path-Copy-8" stroke-opacity="0.24" stroke="#000000" mask="url(#mask-2)"></path>
                <path d="M0,161 C33.3333333,144.333333 61,139.666667 83,147 C116,158 140,167 168,154 C196,141 199,82 238,101 C264,113.666667 309.666667,109.666667 375,89" id="Path-Copy-23" stroke-opacity=".1" stroke="#000000" mask="url(#mask-2)"></path>
                <path d="M0,92 C33.3333333,75.3333333 61,70.6666667 83,78 C116,89 140,98 168,85 C196,72 199,13 238,32 C264,44.6666667 309.666667,40.6666667 375,20" id="Path-Copy-6" stroke-opacity="0.24" stroke="#000000" mask="url(#mask-2)"></path>
                <path d="M0,92 C33.3333333,75.3333333 61,70.6666667 83,78 C116,89 140,98 168,85 C196,72 199,13 238,32 C264,44.6666667 309.666667,40.6666667 375,20" id="Path-Copy-24" stroke-opacity="0.24" stroke="#000000" mask="url(#mask-2)"></path>
                <path d="M0,89 C33.3333333,72.3333333 61,67.6666667 83,75 C116,86 140,95 168,82 C196,69 199,10 238,29 C264,41.6666667 309.666667,37.6666667 375,17" id="Path-Copy-25" stroke-opacity="0.24" stroke="#000000" mask="url(#mask-2)"></path>
                <path d="M0,146 C33.3333333,129.333333 61,124.666667 83,132 C116,143 140,152 168,139 C196,126 199,67 238,86 C264,98.6666667 309.666667,94.6666667 375,74" id="Path-Copy-18" stroke-opacity="0.24" stroke="#000000" mask="url(#mask-2)"></path>
                <path d="M0,158 C33.3333333,141.333333 61,136.666667 83,144 C116,155 140,164 168,151 C196,138 199,79 238,98 C264,110.666667 309.666667,106.666667 375,86" id="Path-Copy-22" stroke-opacity="0.24" stroke="#000000" mask="url(#mask-2)"></path>
                <path d="M0,155 C33.3333333,138.333333 61,133.666667 83,141 C116,152 140,161 168,148 C196,135 199,76 238,95 C264,107.666667 309.666667,103.666667 375,83" id="Path-Copy-21" stroke-opacity="0.24" stroke="#000000" mask="url(#mask-2)"></path>
                <path d="M0,152 C33.3333333,135.333333 61,130.666667 83,138 C116,149 140,158 168,145 C196,132 199,73 238,92 C264,104.666667 309.666667,100.666667 375,80" id="Path-Copy-20" stroke-opacity="0.24" stroke="#000000" mask="url(#mask-2)"></path>
                <path d="M0,95 C33.3333333,78.3333333 61,73.6666667 83,81 C116,92 140,101 168,88 C196,75 199,16 238,35 C264,47.6666667 309.666667,43.6666667 375,23" id="Path-Copy-7" stroke-opacity="0.24" stroke="#000000" mask="url(#mask-2)"></path>
                <path d="M0,149 C33.3333333,132.333333 61,127.666667 83,135 C116,146 140,155 168,142 C196,129 199,70 238,89 C264,101.666667 309.666667,97.6666667 375,77" id="Path-Copy-19" stroke-opacity="0.24" stroke="#000000" mask="url(#mask-2)"></path>
                <path d="M0,143 C33.3333333,126.333333 61,121.666667 83,129 C116,140 140,149 168,136 C196,123 199,64 238,83 C264,95.6666667 309.666667,91.6666667 375,71" id="Path-Copy-17" stroke-opacity="0.24" stroke="#000000" mask="url(#mask-2)"></path>
                <path d="M0,140 C33.3333333,123.333333 61,118.666667 83,126 C116,137 140,146 168,133 C196,120 199,61 238,80 C264,92.6666667 309.666667,88.6666667 375,68" id="Path-Copy-16" stroke-opacity="0.24" stroke="#000000" mask="url(#mask-2)"></path>
                <path d="M0,137 C33.3333333,120.333333 61,115.666667 83,123 C116,134 140,143 168,130 C196,117 199,58 238,77 C264,89.6666667 309.666667,85.6666667 375,65" id="Path-Copy-15" stroke-opacity="0.24" stroke="#000000" mask="url(#mask-2)"></path>
                <path d="M0,134 C33.3333333,117.333333 61,112.666667 83,120 C116,131 140,140 168,127 C196,114 199,55 238,74 C264,86.6666667 309.666667,82.6666667 375,62" id="Path-Copy-14" stroke-opacity="0.24" stroke="#000000" mask="url(#mask-2)"></path>
                <path d="M0,131 C33.3333333,114.333333 61,109.666667 83,117 C116,128 140,137 168,124 C196,111 199,52 238,71 C264,83.6666667 309.666667,79.6666667 375,59" id="Path-Copy-13" stroke-opacity="0.24" stroke="#000000" mask="url(#mask-2)"></path>
                <path d="M0,128 C33.3333333,111.333333 61,106.666667 83,114 C116,125 140,134 168,121 C196,108 199,49 238,68 C264,80.6666667 309.666667,76.6666667 375,56" id="Path-Copy-12" stroke-opacity="0.24" stroke="#000000" mask="url(#mask-2)"></path>
            </g>
        </g>
    </g>
</svg>